<mxfile host="app.diagrams.net" agent="Mozilla/5.0 (Windows NT 10.0; Win64; x64) AppleWebKit/537.36 (KHTML, like Gecko) Chrome/130.0.0.0 Safari/537.36" version="24.8.4">
  <diagram id="C5RBs43oDa-KdzZeNtuy" name="Page-1">
    <mxGraphModel dx="2351" dy="675" grid="1" gridSize="10" guides="1" tooltips="1" connect="1" arrows="1" fold="1" page="1" pageScale="1" pageWidth="827" pageHeight="1169" math="0" shadow="0">
      <root>
        <mxCell id="WIyWlLk6GJQsqaUBKTNV-0" />
        <mxCell id="WIyWlLk6GJQsqaUBKTNV-1" parent="WIyWlLk6GJQsqaUBKTNV-0" />
        <mxCell id="es_hzVNeBXML-SNqYfub-71" value="Admin" style="shape=umlActor;verticalLabelPosition=bottom;verticalAlign=top;html=1;outlineConnect=0;" vertex="1" parent="WIyWlLk6GJQsqaUBKTNV-1">
          <mxGeometry x="-370" y="1850" width="90" height="90" as="geometry" />
        </mxCell>
        <mxCell id="es_hzVNeBXML-SNqYfub-73" value="" style="whiteSpace=wrap;html=1;aspect=fixed;" vertex="1" parent="WIyWlLk6GJQsqaUBKTNV-1">
          <mxGeometry x="-260" y="1780" width="1190" height="1190" as="geometry" />
        </mxCell>
        <mxCell id="es_hzVNeBXML-SNqYfub-74" value="" style="whiteSpace=wrap;html=1;aspect=fixed;strokeColor=default;" vertex="1" parent="WIyWlLk6GJQsqaUBKTNV-1">
          <mxGeometry x="-200" y="1850" width="380" height="380" as="geometry" />
        </mxCell>
        <mxCell id="es_hzVNeBXML-SNqYfub-76" value="" style="whiteSpace=wrap;html=1;aspect=fixed;" vertex="1" parent="WIyWlLk6GJQsqaUBKTNV-1">
          <mxGeometry x="370" y="1848" width="490" height="490" as="geometry" />
        </mxCell>
        <mxCell id="es_hzVNeBXML-SNqYfub-77" value="Resturateur" style="shape=umlActor;verticalLabelPosition=bottom;verticalAlign=top;html=1;outlineConnect=0;" vertex="1" parent="WIyWlLk6GJQsqaUBKTNV-1">
          <mxGeometry x="-380" y="2030" width="90" height="100" as="geometry" />
        </mxCell>
        <mxCell id="es_hzVNeBXML-SNqYfub-78" value="DB" style="shape=cylinder3;whiteSpace=wrap;html=1;boundedLbl=1;backgroundOutline=1;size=15;" vertex="1" parent="WIyWlLk6GJQsqaUBKTNV-1">
          <mxGeometry x="80" y="2030" width="60" height="80" as="geometry" />
        </mxCell>
        <mxCell id="es_hzVNeBXML-SNqYfub-80" value="" style="shape=cube;whiteSpace=wrap;html=1;boundedLbl=1;backgroundOutline=1;darkOpacity=0.05;darkOpacity2=0.1;rotation=90;" vertex="1" parent="WIyWlLk6GJQsqaUBKTNV-1">
          <mxGeometry x="-210" y="2030" width="120" height="80" as="geometry" />
        </mxCell>
        <mxCell id="es_hzVNeBXML-SNqYfub-81" value="Backend" style="shape=cube;whiteSpace=wrap;html=1;boundedLbl=1;backgroundOutline=1;darkOpacity=0.05;darkOpacity2=0.1;rotation=90;" vertex="1" parent="WIyWlLk6GJQsqaUBKTNV-1">
          <mxGeometry x="-90" y="2030" width="120" height="80" as="geometry" />
        </mxCell>
        <mxCell id="es_hzVNeBXML-SNqYfub-82" value="FrontOffice" style="text;strokeColor=none;align=center;fillColor=none;html=1;verticalAlign=middle;whiteSpace=wrap;rounded=0;" vertex="1" parent="WIyWlLk6GJQsqaUBKTNV-1">
          <mxGeometry x="-190" y="2040" width="60" height="50" as="geometry" />
        </mxCell>
        <mxCell id="es_hzVNeBXML-SNqYfub-83" value="Backoffice" style="shape=cube;whiteSpace=wrap;html=1;boundedLbl=1;backgroundOutline=1;darkOpacity=0.05;darkOpacity2=0.1;rotation=90;" vertex="1" parent="WIyWlLk6GJQsqaUBKTNV-1">
          <mxGeometry x="-200" y="1890" width="120" height="80" as="geometry" />
        </mxCell>
        <mxCell id="es_hzVNeBXML-SNqYfub-84" value="DB" style="shape=cylinder3;whiteSpace=wrap;html=1;boundedLbl=1;backgroundOutline=1;size=15;" vertex="1" parent="WIyWlLk6GJQsqaUBKTNV-1">
          <mxGeometry x="400" y="2090" width="60" height="80" as="geometry" />
        </mxCell>
        <mxCell id="es_hzVNeBXML-SNqYfub-85" value="Backend" style="shape=cube;whiteSpace=wrap;html=1;boundedLbl=1;backgroundOutline=1;darkOpacity=0.05;darkOpacity2=0.1;rotation=90;" vertex="1" parent="WIyWlLk6GJQsqaUBKTNV-1">
          <mxGeometry x="540" y="2070" width="120" height="80" as="geometry" />
        </mxCell>
        <mxCell id="es_hzVNeBXML-SNqYfub-86" value="FrontEnd" style="shape=cube;whiteSpace=wrap;html=1;boundedLbl=1;backgroundOutline=1;darkOpacity=0.05;darkOpacity2=0.1;rotation=90;" vertex="1" parent="WIyWlLk6GJQsqaUBKTNV-1">
          <mxGeometry x="707" y="2070" width="120" height="80" as="geometry" />
        </mxCell>
        <mxCell id="es_hzVNeBXML-SNqYfub-88" value="" style="endArrow=classic;html=1;rounded=0;entryX=0;entryY=0.75;entryDx=0;entryDy=0;exitX=0.5;exitY=0.5;exitDx=0;exitDy=0;exitPerimeter=0;" edge="1" parent="WIyWlLk6GJQsqaUBKTNV-1" source="es_hzVNeBXML-SNqYfub-77" target="es_hzVNeBXML-SNqYfub-82">
          <mxGeometry width="50" height="50" relative="1" as="geometry">
            <mxPoint x="-50" y="2110" as="sourcePoint" />
            <mxPoint y="2060" as="targetPoint" />
          </mxGeometry>
        </mxCell>
        <mxCell id="es_hzVNeBXML-SNqYfub-89" value="Request Info" style="text;html=1;align=center;verticalAlign=middle;resizable=0;points=[];autosize=1;strokeColor=none;fillColor=none;rotation=0;" vertex="1" parent="WIyWlLk6GJQsqaUBKTNV-1">
          <mxGeometry x="-300" y="2050" width="90" height="30" as="geometry" />
        </mxCell>
        <mxCell id="es_hzVNeBXML-SNqYfub-90" value="" style="endArrow=classic;html=1;rounded=0;entryX=0;entryY=0;entryDx=70;entryDy=80;entryPerimeter=0;" edge="1" parent="WIyWlLk6GJQsqaUBKTNV-1" source="es_hzVNeBXML-SNqYfub-80" target="es_hzVNeBXML-SNqYfub-81">
          <mxGeometry width="50" height="50" relative="1" as="geometry">
            <mxPoint x="-30" y="2130" as="sourcePoint" />
            <mxPoint x="20" y="2080" as="targetPoint" />
          </mxGeometry>
        </mxCell>
        <mxCell id="es_hzVNeBXML-SNqYfub-91" value="" style="endArrow=classic;html=1;rounded=0;exitX=0.585;exitY=0.021;exitDx=0;exitDy=0;exitPerimeter=0;" edge="1" parent="WIyWlLk6GJQsqaUBKTNV-1" source="es_hzVNeBXML-SNqYfub-81" target="es_hzVNeBXML-SNqYfub-78">
          <mxGeometry width="50" height="50" relative="1" as="geometry">
            <mxPoint x="-30" y="2130" as="sourcePoint" />
            <mxPoint x="20" y="2080" as="targetPoint" />
          </mxGeometry>
        </mxCell>
        <mxCell id="es_hzVNeBXML-SNqYfub-93" value="" style="endArrow=classic;html=1;rounded=0;exitX=0.5;exitY=0.5;exitDx=0;exitDy=0;exitPerimeter=0;entryX=0;entryY=0;entryDx=70;entryDy=80;entryPerimeter=0;" edge="1" parent="WIyWlLk6GJQsqaUBKTNV-1" source="es_hzVNeBXML-SNqYfub-71" target="es_hzVNeBXML-SNqYfub-83">
          <mxGeometry width="50" height="50" relative="1" as="geometry">
            <mxPoint x="-30" y="2130" as="sourcePoint" />
            <mxPoint x="20" y="2080" as="targetPoint" />
          </mxGeometry>
        </mxCell>
        <mxCell id="es_hzVNeBXML-SNqYfub-96" value="" style="endArrow=classic;html=1;rounded=0;exitX=0.51;exitY=0.03;exitDx=0;exitDy=0;exitPerimeter=0;entryX=0.023;entryY=0.501;entryDx=0;entryDy=0;entryPerimeter=0;" edge="1" parent="WIyWlLk6GJQsqaUBKTNV-1" source="es_hzVNeBXML-SNqYfub-83" target="es_hzVNeBXML-SNqYfub-81">
          <mxGeometry width="50" height="50" relative="1" as="geometry">
            <mxPoint x="-10" y="2060" as="sourcePoint" />
            <mxPoint x="40" y="2010" as="targetPoint" />
          </mxGeometry>
        </mxCell>
        <mxCell id="es_hzVNeBXML-SNqYfub-97" value="Resturateur" style="shape=umlActor;verticalLabelPosition=bottom;verticalAlign=top;html=1;outlineConnect=0;" vertex="1" parent="WIyWlLk6GJQsqaUBKTNV-1">
          <mxGeometry x="1010" y="2060" width="110" height="120" as="geometry" />
        </mxCell>
        <mxCell id="es_hzVNeBXML-SNqYfub-98" value="" style="endArrow=classic;html=1;rounded=0;exitX=0.5;exitY=0.5;exitDx=0;exitDy=0;exitPerimeter=0;" edge="1" parent="WIyWlLk6GJQsqaUBKTNV-1" source="es_hzVNeBXML-SNqYfub-97" target="es_hzVNeBXML-SNqYfub-86">
          <mxGeometry width="50" height="50" relative="1" as="geometry">
            <mxPoint x="330" y="2170" as="sourcePoint" />
            <mxPoint x="380" y="2120" as="targetPoint" />
          </mxGeometry>
        </mxCell>
        <mxCell id="es_hzVNeBXML-SNqYfub-101" value="" style="endArrow=classic;html=1;rounded=0;exitX=0;exitY=0;exitDx=120;exitDy=50;exitPerimeter=0;entryX=0.009;entryY=0.862;entryDx=0;entryDy=0;entryPerimeter=0;" edge="1" parent="WIyWlLk6GJQsqaUBKTNV-1" source="es_hzVNeBXML-SNqYfub-81" target="es_hzVNeBXML-SNqYfub-76">
          <mxGeometry width="50" height="50" relative="1" as="geometry">
            <mxPoint x="330" y="2170" as="sourcePoint" />
            <mxPoint x="380" y="2120" as="targetPoint" />
          </mxGeometry>
        </mxCell>
        <mxCell id="es_hzVNeBXML-SNqYfub-102" value="" style="endArrow=classic;html=1;rounded=0;entryX=0;entryY=0;entryDx=50;entryDy=0;entryPerimeter=0;exitX=0.503;exitY=0.971;exitDx=0;exitDy=0;exitPerimeter=0;" edge="1" parent="WIyWlLk6GJQsqaUBKTNV-1" source="es_hzVNeBXML-SNqYfub-86" target="es_hzVNeBXML-SNqYfub-85">
          <mxGeometry width="50" height="50" relative="1" as="geometry">
            <mxPoint x="330" y="2160" as="sourcePoint" />
            <mxPoint x="380" y="2110" as="targetPoint" />
          </mxGeometry>
        </mxCell>
        <mxCell id="es_hzVNeBXML-SNqYfub-103" value="" style="endArrow=classic;html=1;rounded=0;exitX=0;exitY=0;exitDx=70;exitDy=80;exitPerimeter=0;" edge="1" parent="WIyWlLk6GJQsqaUBKTNV-1" source="es_hzVNeBXML-SNqYfub-85">
          <mxGeometry width="50" height="50" relative="1" as="geometry">
            <mxPoint x="330" y="2160" as="sourcePoint" />
            <mxPoint x="460" y="2140" as="targetPoint" />
          </mxGeometry>
        </mxCell>
        <mxCell id="es_hzVNeBXML-SNqYfub-132" value="" style="whiteSpace=wrap;html=1;aspect=fixed;" vertex="1" parent="WIyWlLk6GJQsqaUBKTNV-1">
          <mxGeometry x="-800" y="755" width="920" height="920" as="geometry" />
        </mxCell>
        <mxCell id="es_hzVNeBXML-SNqYfub-104" value="Dashboard for Restaurant" style="text;strokeColor=none;align=center;fillColor=none;html=1;verticalAlign=middle;whiteSpace=wrap;rounded=0;" vertex="1" parent="WIyWlLk6GJQsqaUBKTNV-1">
          <mxGeometry x="560" y="1860" width="110" height="30" as="geometry" />
        </mxCell>
        <mxCell id="es_hzVNeBXML-SNqYfub-105" value="Site Web principal" style="text;strokeColor=none;align=center;fillColor=none;html=1;verticalAlign=middle;whiteSpace=wrap;rounded=0;" vertex="1" parent="WIyWlLk6GJQsqaUBKTNV-1">
          <mxGeometry x="-60" y="1870" width="110" height="30" as="geometry" />
        </mxCell>
        <mxCell id="es_hzVNeBXML-SNqYfub-106" value="Generate Dashboard using Client informations" style="text;strokeColor=none;align=center;fillColor=none;html=1;verticalAlign=middle;whiteSpace=wrap;rounded=0;rotation=15;" vertex="1" parent="WIyWlLk6GJQsqaUBKTNV-1">
          <mxGeometry x="190" y="2190" width="140" height="30" as="geometry" />
        </mxCell>
        <mxCell id="es_hzVNeBXML-SNqYfub-107" value="Principal Domain" style="text;strokeColor=none;align=center;fillColor=none;html=1;verticalAlign=middle;whiteSpace=wrap;rounded=0;" vertex="1" parent="WIyWlLk6GJQsqaUBKTNV-1">
          <mxGeometry x="210" y="1800" width="145" height="30" as="geometry" />
        </mxCell>
        <mxCell id="es_hzVNeBXML-SNqYfub-111" value="" style="group" vertex="1" connectable="0" parent="WIyWlLk6GJQsqaUBKTNV-1">
          <mxGeometry x="1670" y="750" width="750" height="910" as="geometry" />
        </mxCell>
        <mxCell id="es_hzVNeBXML-SNqYfub-0" value="Client" style="shape=umlActor;verticalLabelPosition=bottom;verticalAlign=top;html=1;" vertex="1" parent="es_hzVNeBXML-SNqYfub-111">
          <mxGeometry y="200" width="50" height="80" as="geometry" />
        </mxCell>
        <mxCell id="es_hzVNeBXML-SNqYfub-1" value="" style="swimlane;startSize=0;" vertex="1" parent="es_hzVNeBXML-SNqYfub-111">
          <mxGeometry x="79" width="570" height="910" as="geometry" />
        </mxCell>
        <mxCell id="es_hzVNeBXML-SNqYfub-2" value="Authentification" style="ellipse;whiteSpace=wrap;html=1;" vertex="1" parent="es_hzVNeBXML-SNqYfub-1">
          <mxGeometry x="180" y="510" width="140" height="60" as="geometry" />
        </mxCell>
        <mxCell id="es_hzVNeBXML-SNqYfub-3" value="Choise Subscription" style="ellipse;whiteSpace=wrap;html=1;" vertex="1" parent="es_hzVNeBXML-SNqYfub-1">
          <mxGeometry x="50" y="60" width="130" height="60" as="geometry" />
        </mxCell>
        <mxCell id="es_hzVNeBXML-SNqYfub-4" value="SetRestoInformations" style="ellipse;whiteSpace=wrap;html=1;" vertex="1" parent="es_hzVNeBXML-SNqYfub-1">
          <mxGeometry x="41" y="190" width="130" height="60" as="geometry" />
        </mxCell>
        <mxCell id="es_hzVNeBXML-SNqYfub-5" value="ConsultSubscriptions" style="ellipse;whiteSpace=wrap;html=1;" vertex="1" parent="es_hzVNeBXML-SNqYfub-1">
          <mxGeometry x="60" y="350" width="140" height="70" as="geometry" />
        </mxCell>
        <mxCell id="es_hzVNeBXML-SNqYfub-11" value="" style="swimlane;startSize=0;" vertex="1" parent="es_hzVNeBXML-SNqYfub-1">
          <mxGeometry x="360" y="30" width="181" height="500" as="geometry" />
        </mxCell>
        <mxCell id="es_hzVNeBXML-SNqYfub-15" value="Authentification" style="ellipse;whiteSpace=wrap;html=1;" vertex="1" parent="es_hzVNeBXML-SNqYfub-11">
          <mxGeometry x="20" y="40" width="140" height="40" as="geometry" />
        </mxCell>
        <mxCell id="es_hzVNeBXML-SNqYfub-21" value="ManageTables" style="ellipse;whiteSpace=wrap;html=1;" vertex="1" parent="es_hzVNeBXML-SNqYfub-11">
          <mxGeometry x="20" y="100" width="140" height="40" as="geometry" />
        </mxCell>
        <mxCell id="es_hzVNeBXML-SNqYfub-22" value="ManageReservaations" style="ellipse;whiteSpace=wrap;html=1;" vertex="1" parent="es_hzVNeBXML-SNqYfub-11">
          <mxGeometry x="20" y="150" width="135.25" height="40" as="geometry" />
        </mxCell>
        <mxCell id="es_hzVNeBXML-SNqYfub-23" value="SendEmails" style="ellipse;whiteSpace=wrap;html=1;" vertex="1" parent="es_hzVNeBXML-SNqYfub-11">
          <mxGeometry x="30" y="200" width="120" height="40" as="geometry" />
        </mxCell>
        <mxCell id="es_hzVNeBXML-SNqYfub-24" value="ManageUsers" style="ellipse;whiteSpace=wrap;html=1;" vertex="1" parent="es_hzVNeBXML-SNqYfub-11">
          <mxGeometry x="40.25" y="250" width="109.75" height="40" as="geometry" />
        </mxCell>
        <mxCell id="es_hzVNeBXML-SNqYfub-25" value="ManagementClients" style="ellipse;whiteSpace=wrap;html=1;" vertex="1" parent="es_hzVNeBXML-SNqYfub-11">
          <mxGeometry x="36.25" y="309" width="119" height="40" as="geometry" />
        </mxCell>
        <mxCell id="es_hzVNeBXML-SNqYfub-26" value="ManageEvents" style="ellipse;whiteSpace=wrap;html=1;" vertex="1" parent="es_hzVNeBXML-SNqYfub-11">
          <mxGeometry x="40.25" y="370" width="115" height="40" as="geometry" />
        </mxCell>
        <mxCell id="es_hzVNeBXML-SNqYfub-37" value="ConsultSubscription" style="ellipse;whiteSpace=wrap;html=1;" vertex="1" parent="es_hzVNeBXML-SNqYfub-11">
          <mxGeometry x="35.5" y="430" width="124.5" height="50" as="geometry" />
        </mxCell>
        <mxCell id="es_hzVNeBXML-SNqYfub-18" value="Principal Doamin" style="text;html=1;align=center;verticalAlign=middle;resizable=0;points=[];autosize=1;strokeColor=none;fillColor=none;fontSize=16;" vertex="1" parent="es_hzVNeBXML-SNqYfub-1">
          <mxGeometry x="215" width="140" height="30" as="geometry" />
        </mxCell>
        <mxCell id="es_hzVNeBXML-SNqYfub-30" value="ManageClients" style="ellipse;whiteSpace=wrap;html=1;" vertex="1" parent="es_hzVNeBXML-SNqYfub-1">
          <mxGeometry x="391" y="610" width="150" height="60" as="geometry" />
        </mxCell>
        <mxCell id="es_hzVNeBXML-SNqYfub-31" value="ManageKeysAccec" style="ellipse;whiteSpace=wrap;html=1;" vertex="1" parent="es_hzVNeBXML-SNqYfub-1">
          <mxGeometry x="391" y="690" width="150" height="60" as="geometry" />
        </mxCell>
        <mxCell id="es_hzVNeBXML-SNqYfub-32" value="ManageSubscriptions" style="ellipse;whiteSpace=wrap;html=1;" vertex="1" parent="es_hzVNeBXML-SNqYfub-1">
          <mxGeometry x="391" y="760" width="150" height="50" as="geometry" />
        </mxCell>
        <mxCell id="es_hzVNeBXML-SNqYfub-33" value="ManageOrders" style="ellipse;whiteSpace=wrap;html=1;" vertex="1" parent="es_hzVNeBXML-SNqYfub-1">
          <mxGeometry x="391" y="830" width="150" height="50" as="geometry" />
        </mxCell>
        <mxCell id="es_hzVNeBXML-SNqYfub-45" value="" style="endArrow=open;endFill=1;endSize=12;html=1;rounded=0;fontSize=12;curved=1;exitX=1;exitY=0.5;exitDx=0;exitDy=0;entryX=0;entryY=0.5;entryDx=0;entryDy=0;" edge="1" parent="es_hzVNeBXML-SNqYfub-1" source="es_hzVNeBXML-SNqYfub-3" target="es_hzVNeBXML-SNqYfub-15">
          <mxGeometry width="160" relative="1" as="geometry">
            <mxPoint x="271" y="470" as="sourcePoint" />
            <mxPoint x="431" y="470" as="targetPoint" />
          </mxGeometry>
        </mxCell>
        <mxCell id="es_hzVNeBXML-SNqYfub-46" value="" style="endArrow=open;endFill=1;endSize=12;html=1;rounded=0;fontSize=12;curved=1;entryX=0;entryY=0.5;entryDx=0;entryDy=0;exitX=1;exitY=0.5;exitDx=0;exitDy=0;" edge="1" parent="es_hzVNeBXML-SNqYfub-1" source="es_hzVNeBXML-SNqYfub-3" target="es_hzVNeBXML-SNqYfub-21">
          <mxGeometry width="160" relative="1" as="geometry">
            <mxPoint x="171" y="130" as="sourcePoint" />
            <mxPoint x="331" y="130" as="targetPoint" />
          </mxGeometry>
        </mxCell>
        <mxCell id="es_hzVNeBXML-SNqYfub-47" value="" style="endArrow=open;endFill=1;endSize=12;html=1;rounded=0;fontSize=12;curved=1;exitX=1;exitY=0.5;exitDx=0;exitDy=0;entryX=0;entryY=0.5;entryDx=0;entryDy=0;" edge="1" parent="es_hzVNeBXML-SNqYfub-1" source="es_hzVNeBXML-SNqYfub-3" target="es_hzVNeBXML-SNqYfub-22">
          <mxGeometry width="160" relative="1" as="geometry">
            <mxPoint x="211" y="200" as="sourcePoint" />
            <mxPoint x="371" y="200" as="targetPoint" />
          </mxGeometry>
        </mxCell>
        <mxCell id="es_hzVNeBXML-SNqYfub-48" value="" style="endArrow=open;endFill=1;endSize=12;html=1;rounded=0;fontSize=12;curved=1;exitX=1;exitY=0.5;exitDx=0;exitDy=0;entryX=0;entryY=0.5;entryDx=0;entryDy=0;" edge="1" parent="es_hzVNeBXML-SNqYfub-1" source="es_hzVNeBXML-SNqYfub-3" target="es_hzVNeBXML-SNqYfub-23">
          <mxGeometry width="160" relative="1" as="geometry">
            <mxPoint x="191" y="250" as="sourcePoint" />
            <mxPoint x="351" y="250" as="targetPoint" />
          </mxGeometry>
        </mxCell>
        <mxCell id="es_hzVNeBXML-SNqYfub-49" value="" style="endArrow=open;endFill=1;endSize=12;html=1;rounded=0;fontSize=12;curved=1;exitX=1;exitY=0.5;exitDx=0;exitDy=0;entryX=0;entryY=0.5;entryDx=0;entryDy=0;" edge="1" parent="es_hzVNeBXML-SNqYfub-1" source="es_hzVNeBXML-SNqYfub-3" target="es_hzVNeBXML-SNqYfub-24">
          <mxGeometry width="160" relative="1" as="geometry">
            <mxPoint x="201" y="280" as="sourcePoint" />
            <mxPoint x="361" y="280" as="targetPoint" />
          </mxGeometry>
        </mxCell>
        <mxCell id="es_hzVNeBXML-SNqYfub-50" value="" style="endArrow=open;endFill=1;endSize=12;html=1;rounded=0;fontSize=12;curved=1;exitX=1;exitY=1;exitDx=0;exitDy=0;entryX=0;entryY=1;entryDx=0;entryDy=0;" edge="1" parent="es_hzVNeBXML-SNqYfub-1" source="es_hzVNeBXML-SNqYfub-3" target="es_hzVNeBXML-SNqYfub-26">
          <mxGeometry width="160" relative="1" as="geometry">
            <mxPoint x="171" y="290" as="sourcePoint" />
            <mxPoint x="331" y="290" as="targetPoint" />
          </mxGeometry>
        </mxCell>
        <mxCell id="es_hzVNeBXML-SNqYfub-51" value="" style="endArrow=open;endFill=1;endSize=12;html=1;rounded=0;fontSize=12;curved=1;exitX=0.955;exitY=0.829;exitDx=0;exitDy=0;exitPerimeter=0;entryX=0;entryY=0.5;entryDx=0;entryDy=0;" edge="1" parent="es_hzVNeBXML-SNqYfub-1" source="es_hzVNeBXML-SNqYfub-3" target="es_hzVNeBXML-SNqYfub-25">
          <mxGeometry width="160" relative="1" as="geometry">
            <mxPoint x="201" y="300" as="sourcePoint" />
            <mxPoint x="361" y="300" as="targetPoint" />
          </mxGeometry>
        </mxCell>
        <mxCell id="es_hzVNeBXML-SNqYfub-52" value="" style="endArrow=open;endFill=1;endSize=12;html=1;rounded=0;fontSize=12;curved=1;exitX=0.717;exitY=0.92;exitDx=0;exitDy=0;exitPerimeter=0;entryX=0;entryY=0.5;entryDx=0;entryDy=0;" edge="1" parent="es_hzVNeBXML-SNqYfub-1" source="es_hzVNeBXML-SNqYfub-3" target="es_hzVNeBXML-SNqYfub-37">
          <mxGeometry width="160" relative="1" as="geometry">
            <mxPoint x="241" y="460" as="sourcePoint" />
            <mxPoint x="401" y="460" as="targetPoint" />
          </mxGeometry>
        </mxCell>
        <mxCell id="es_hzVNeBXML-SNqYfub-8" value="Admin" style="shape=umlActor;verticalLabelPosition=bottom;verticalAlign=top;html=1;" vertex="1" parent="es_hzVNeBXML-SNqYfub-111">
          <mxGeometry x="680" y="390" width="70" height="110" as="geometry" />
        </mxCell>
        <mxCell id="es_hzVNeBXML-SNqYfub-38" value="" style="endArrow=open;endFill=1;endSize=12;html=1;rounded=0;fontSize=12;curved=1;exitX=0.664;exitY=0.712;exitDx=0;exitDy=0;exitPerimeter=0;entryX=0;entryY=0.5;entryDx=0;entryDy=0;" edge="1" parent="es_hzVNeBXML-SNqYfub-111" source="es_hzVNeBXML-SNqYfub-0" target="es_hzVNeBXML-SNqYfub-3">
          <mxGeometry width="160" relative="1" as="geometry">
            <mxPoint x="350" y="440" as="sourcePoint" />
            <mxPoint x="510" y="440" as="targetPoint" />
          </mxGeometry>
        </mxCell>
        <mxCell id="es_hzVNeBXML-SNqYfub-39" value="" style="endArrow=open;endFill=1;endSize=12;html=1;rounded=0;fontSize=12;curved=1;entryX=0;entryY=0.5;entryDx=0;entryDy=0;" edge="1" parent="es_hzVNeBXML-SNqYfub-111" target="es_hzVNeBXML-SNqYfub-4">
          <mxGeometry width="160" relative="1" as="geometry">
            <mxPoint x="30" y="250" as="sourcePoint" />
            <mxPoint x="510" y="440" as="targetPoint" />
          </mxGeometry>
        </mxCell>
        <mxCell id="es_hzVNeBXML-SNqYfub-40" value="" style="endArrow=open;endFill=1;endSize=12;html=1;rounded=0;fontSize=12;curved=1;exitX=0.518;exitY=0.69;exitDx=0;exitDy=0;exitPerimeter=0;entryX=0;entryY=0.5;entryDx=0;entryDy=0;" edge="1" parent="es_hzVNeBXML-SNqYfub-111" source="es_hzVNeBXML-SNqYfub-0" target="es_hzVNeBXML-SNqYfub-5">
          <mxGeometry width="160" relative="1" as="geometry">
            <mxPoint x="350" y="440" as="sourcePoint" />
            <mxPoint x="510" y="440" as="targetPoint" />
          </mxGeometry>
        </mxCell>
        <mxCell id="es_hzVNeBXML-SNqYfub-42" value="" style="endArrow=open;endFill=1;endSize=12;html=1;rounded=0;fontSize=12;curved=1;entryX=0.967;entryY=0.753;entryDx=0;entryDy=0;entryPerimeter=0;exitX=0.5;exitY=0.5;exitDx=0;exitDy=0;exitPerimeter=0;" edge="1" parent="es_hzVNeBXML-SNqYfub-111" source="es_hzVNeBXML-SNqYfub-8" target="es_hzVNeBXML-SNqYfub-30">
          <mxGeometry width="160" relative="1" as="geometry">
            <mxPoint x="720" y="470" as="sourcePoint" />
            <mxPoint x="880" y="470" as="targetPoint" />
          </mxGeometry>
        </mxCell>
        <mxCell id="es_hzVNeBXML-SNqYfub-43" value="" style="endArrow=open;endFill=1;endSize=12;html=1;rounded=0;fontSize=12;curved=1;exitX=0.708;exitY=0.791;exitDx=0;exitDy=0;exitPerimeter=0;entryX=1;entryY=0.5;entryDx=0;entryDy=0;" edge="1" parent="es_hzVNeBXML-SNqYfub-111" source="es_hzVNeBXML-SNqYfub-8" target="es_hzVNeBXML-SNqYfub-31">
          <mxGeometry width="160" relative="1" as="geometry">
            <mxPoint x="590" y="640" as="sourcePoint" />
            <mxPoint x="750" y="640" as="targetPoint" />
          </mxGeometry>
        </mxCell>
        <mxCell id="es_hzVNeBXML-SNqYfub-44" value="" style="endArrow=open;endFill=1;endSize=12;html=1;rounded=0;fontSize=12;curved=1;exitX=1;exitY=1;exitDx=0;exitDy=0;exitPerimeter=0;entryX=1;entryY=0.5;entryDx=0;entryDy=0;" edge="1" parent="es_hzVNeBXML-SNqYfub-111" source="es_hzVNeBXML-SNqYfub-8" target="es_hzVNeBXML-SNqYfub-33">
          <mxGeometry width="160" relative="1" as="geometry">
            <mxPoint x="350" y="470" as="sourcePoint" />
            <mxPoint x="510" y="470" as="targetPoint" />
          </mxGeometry>
        </mxCell>
        <mxCell id="es_hzVNeBXML-SNqYfub-109" value="" style="endArrow=open;endFill=1;endSize=12;html=1;rounded=0;fontSize=12;curved=1;exitX=0.833;exitY=0.901;exitDx=0;exitDy=0;exitPerimeter=0;entryX=1;entryY=0.5;entryDx=0;entryDy=0;" edge="1" parent="es_hzVNeBXML-SNqYfub-111" source="es_hzVNeBXML-SNqYfub-8" target="es_hzVNeBXML-SNqYfub-32">
          <mxGeometry width="160" relative="1" as="geometry">
            <mxPoint x="760" y="510" as="sourcePoint" />
            <mxPoint x="630" y="865" as="targetPoint" />
          </mxGeometry>
        </mxCell>
        <mxCell id="es_hzVNeBXML-SNqYfub-110" value="Restaurateur" style="shape=umlActor;verticalLabelPosition=bottom;verticalAlign=top;html=1;" vertex="1" parent="es_hzVNeBXML-SNqYfub-111">
          <mxGeometry x="690" y="130" width="50" height="80" as="geometry" />
        </mxCell>
        <mxCell id="es_hzVNeBXML-SNqYfub-119" value="&lt;p style=&quot;margin:0px;margin-top:4px;text-align:center;&quot;&gt;&lt;b&gt;Restaurateur&lt;/b&gt;&lt;/p&gt;&lt;hr size=&quot;1&quot; style=&quot;border-style:solid;&quot;&gt;&lt;p style=&quot;margin:0px;margin-left:4px;&quot;&gt;+First Name: String&lt;/p&gt;&lt;p style=&quot;margin:0px;margin-left:4px;&quot;&gt;+Last Name: String&lt;/p&gt;&lt;p style=&quot;margin:0px;margin-left:4px;&quot;&gt;+Email: String&lt;/p&gt;&lt;p style=&quot;margin:0px;margin-left:4px;&quot;&gt;+Password:String&lt;/p&gt;&lt;p style=&quot;margin:0px;margin-left:4px;&quot;&gt;+start Subscription:Date&lt;/p&gt;&lt;p style=&quot;margin:0px;margin-left:4px;&quot;&gt;+End Subscription:Date&lt;/p&gt;&lt;p style=&quot;margin:0px;margin-left:4px;&quot;&gt;+Is Expired:Boolean&lt;/p&gt;&lt;p style=&quot;margin:0px;margin-left:4px;&quot;&gt;&lt;br&gt;&lt;/p&gt;&lt;hr size=&quot;1&quot; style=&quot;border-style:solid;&quot;&gt;&lt;p style=&quot;margin:0px;margin-left:4px;&quot;&gt;+ method(): Type&lt;/p&gt;" style="verticalAlign=top;align=left;overflow=fill;html=1;whiteSpace=wrap;" vertex="1" parent="WIyWlLk6GJQsqaUBKTNV-1">
          <mxGeometry x="-790" y="930" width="250" height="194" as="geometry" />
        </mxCell>
        <mxCell id="es_hzVNeBXML-SNqYfub-120" value="&lt;p style=&quot;margin:0px;margin-top:4px;text-align:center;&quot;&gt;&lt;b&gt;Admin&lt;/b&gt;&lt;/p&gt;&lt;hr size=&quot;1&quot; style=&quot;border-style:solid;&quot;&gt;&lt;p style=&quot;margin:0px;margin-left:4px;&quot;&gt;+ First Name: String&lt;/p&gt;&lt;p style=&quot;margin:0px;margin-left:4px;&quot;&gt;+Last Name: String&lt;/p&gt;&lt;p style=&quot;margin:0px;margin-left:4px;&quot;&gt;+Email: String&lt;/p&gt;&lt;p style=&quot;margin:0px;margin-left:4px;&quot;&gt;+Password:String&lt;/p&gt;&lt;p style=&quot;margin:0px;margin-left:4px;&quot;&gt;&lt;br&gt;&lt;/p&gt;&lt;hr size=&quot;1&quot; style=&quot;border-style:solid;&quot;&gt;&lt;p style=&quot;margin:0px;margin-left:4px;&quot;&gt;+ method(): Type&lt;/p&gt;" style="verticalAlign=top;align=left;overflow=fill;html=1;whiteSpace=wrap;" vertex="1" parent="WIyWlLk6GJQsqaUBKTNV-1">
          <mxGeometry x="-210" y="930" width="250" height="194" as="geometry" />
        </mxCell>
        <mxCell id="es_hzVNeBXML-SNqYfub-121" value="&lt;p style=&quot;margin:0px;margin-top:4px;text-align:center;&quot;&gt;&lt;b&gt;Restaurant&lt;/b&gt;&lt;/p&gt;&lt;hr size=&quot;1&quot; style=&quot;border-style:solid;&quot;&gt;&lt;p style=&quot;margin:0px;margin-left:4px;&quot;&gt;+Restaurant Name: String&lt;/p&gt;&lt;p style=&quot;margin:0px;margin-left:4px;&quot;&gt;+Restaurant Location:String&lt;/p&gt;&lt;p style=&quot;margin:0px;margin-left:4px;&quot;&gt;+Numbers of Tables:Int&lt;/p&gt;&lt;p style=&quot;margin:0px;margin-left:4px;&quot;&gt;&lt;br&gt;&lt;/p&gt;&lt;p style=&quot;margin:0px;margin-left:4px;&quot;&gt;&lt;br&gt;&lt;/p&gt;&lt;hr size=&quot;1&quot; style=&quot;border-style:solid;&quot;&gt;&lt;p style=&quot;margin:0px;margin-left:4px;&quot;&gt;+ method(): Type&lt;/p&gt;" style="verticalAlign=top;align=left;overflow=fill;html=1;whiteSpace=wrap;" vertex="1" parent="WIyWlLk6GJQsqaUBKTNV-1">
          <mxGeometry x="-500" y="930" width="250" height="194" as="geometry" />
        </mxCell>
        <mxCell id="es_hzVNeBXML-SNqYfub-122" value="&lt;p style=&quot;margin:0px;margin-top:4px;text-align:center;&quot;&gt;&lt;b&gt;Subscription&lt;/b&gt;&lt;/p&gt;&lt;hr size=&quot;1&quot; style=&quot;border-style:solid;&quot;&gt;&lt;p style=&quot;margin:0px;margin-left:4px;&quot;&gt;+Subscription Name: String&lt;/p&gt;&lt;p style=&quot;margin:0px;margin-left:4px;&quot;&gt;+Subscription_Futures:String&lt;/p&gt;&lt;p style=&quot;margin:0px;margin-left:4px;&quot;&gt;&lt;br&gt;&lt;/p&gt;&lt;hr size=&quot;1&quot; style=&quot;border-style:solid;&quot;&gt;&lt;p style=&quot;margin:0px;margin-left:4px;&quot;&gt;+ method(): Type&lt;/p&gt;" style="verticalAlign=top;align=left;overflow=fill;html=1;whiteSpace=wrap;" vertex="1" parent="WIyWlLk6GJQsqaUBKTNV-1">
          <mxGeometry x="-790" y="1180" width="250" height="194" as="geometry" />
        </mxCell>
        <mxCell id="es_hzVNeBXML-SNqYfub-127" value="&lt;p style=&quot;margin:0px;margin-top:4px;text-align:center;&quot;&gt;&lt;b&gt;Orders&lt;/b&gt;&lt;/p&gt;&lt;hr size=&quot;1&quot; style=&quot;border-style:solid;&quot;&gt;&lt;p style=&quot;margin:0px;margin-left:4px;&quot;&gt;+Subscription Name: String&lt;/p&gt;&lt;p style=&quot;margin:0px;margin-left:4px;&quot;&gt;+Subscription_Futures:String&lt;/p&gt;&lt;p style=&quot;margin:0px;margin-left:4px;&quot;&gt;&lt;br&gt;&lt;/p&gt;&lt;hr size=&quot;1&quot; style=&quot;border-style:solid;&quot;&gt;&lt;p style=&quot;margin:0px;margin-left:4px;&quot;&gt;+ method(): Type&lt;/p&gt;" style="verticalAlign=top;align=left;overflow=fill;html=1;whiteSpace=wrap;" vertex="1" parent="WIyWlLk6GJQsqaUBKTNV-1">
          <mxGeometry x="-490" y="1180" width="250" height="194" as="geometry" />
        </mxCell>
        <mxCell id="es_hzVNeBXML-SNqYfub-130" value="" style="group" vertex="1" connectable="0" parent="WIyWlLk6GJQsqaUBKTNV-1">
          <mxGeometry x="350" y="770" width="910" height="910" as="geometry" />
        </mxCell>
        <mxCell id="es_hzVNeBXML-SNqYfub-129" value="" style="whiteSpace=wrap;html=1;aspect=fixed;" vertex="1" parent="es_hzVNeBXML-SNqYfub-130">
          <mxGeometry width="910" height="910" as="geometry" />
        </mxCell>
        <mxCell id="es_hzVNeBXML-SNqYfub-123" value="&lt;p style=&quot;margin:0px;margin-top:4px;text-align:center;&quot;&gt;&lt;b&gt;RestaurantClient&lt;/b&gt;&lt;/p&gt;&lt;hr size=&quot;1&quot; style=&quot;border-style:solid;&quot;&gt;&lt;p style=&quot;margin:0px;margin-left:4px;&quot;&gt;+First Name: String&lt;/p&gt;&lt;p style=&quot;margin:0px;margin-left:4px;&quot;&gt;+Last Name: String&lt;/p&gt;&lt;p style=&quot;margin:0px;margin-left:4px;&quot;&gt;+Email: String&lt;/p&gt;&lt;p style=&quot;margin:0px;margin-left:4px;&quot;&gt;+phoneNumber:String&lt;/p&gt;&lt;hr size=&quot;1&quot; style=&quot;border-style:solid;&quot;&gt;&lt;p style=&quot;margin:0px;margin-left:4px;&quot;&gt;+ method(): Type&lt;/p&gt;" style="verticalAlign=top;align=left;overflow=fill;html=1;whiteSpace=wrap;" vertex="1" parent="es_hzVNeBXML-SNqYfub-130">
          <mxGeometry x="350" y="110" width="250" height="194" as="geometry" />
        </mxCell>
        <mxCell id="es_hzVNeBXML-SNqYfub-124" value="&lt;p style=&quot;margin:0px;margin-top:4px;text-align:center;&quot;&gt;&lt;b&gt;RestaurantTable&lt;/b&gt;&lt;/p&gt;&lt;hr size=&quot;1&quot; style=&quot;border-style:solid;&quot;&gt;&lt;p style=&quot;margin:0px;margin-left:4px;&quot;&gt;+Table Number: int&lt;/p&gt;&lt;p style=&quot;margin:0px;margin-left:4px;&quot;&gt;+Number Of Places: int&lt;/p&gt;&lt;p style=&quot;margin:0px;margin-left:4px;&quot;&gt;+Table Emplacement :{&lt;/p&gt;&lt;p style=&quot;margin:0px;margin-left:4px;&quot;&gt;x:float,&lt;/p&gt;&lt;p style=&quot;margin:0px;margin-left:4px;&quot;&gt;y:float,&lt;/p&gt;&lt;p style=&quot;margin:0px;margin-left:4px;&quot;&gt;}&lt;/p&gt;&lt;p style=&quot;margin:0px;margin-left:4px;&quot;&gt;&lt;br&gt;&lt;/p&gt;&lt;hr size=&quot;1&quot; style=&quot;border-style:solid;&quot;&gt;&lt;p style=&quot;margin:0px;margin-left:4px;&quot;&gt;+ method(): Type&lt;/p&gt;" style="verticalAlign=top;align=left;overflow=fill;html=1;whiteSpace=wrap;" vertex="1" parent="es_hzVNeBXML-SNqYfub-130">
          <mxGeometry x="60" y="110" width="250" height="194" as="geometry" />
        </mxCell>
        <mxCell id="es_hzVNeBXML-SNqYfub-125" value="&lt;p style=&quot;margin:0px;margin-top:4px;text-align:center;&quot;&gt;&lt;b&gt;Reservation&lt;/b&gt;&lt;/p&gt;&lt;hr size=&quot;1&quot; style=&quot;border-style:solid;&quot;&gt;&lt;p style=&quot;margin:0px;margin-left:4px;&quot;&gt;+First Name: String&lt;/p&gt;&lt;p style=&quot;margin:0px;margin-left:4px;&quot;&gt;+Last Name: String&lt;/p&gt;&lt;p style=&quot;margin:0px;margin-left:4px;&quot;&gt;+Email: String&lt;/p&gt;&lt;p style=&quot;margin:0px;margin-left:4px;&quot;&gt;+phoneNumber:String&lt;/p&gt;&lt;hr size=&quot;1&quot; style=&quot;border-style:solid;&quot;&gt;&lt;p style=&quot;margin:0px;margin-left:4px;&quot;&gt;+ method(): Type&lt;/p&gt;" style="verticalAlign=top;align=left;overflow=fill;html=1;whiteSpace=wrap;" vertex="1" parent="es_hzVNeBXML-SNqYfub-130">
          <mxGeometry x="60" y="350" width="250" height="194" as="geometry" />
        </mxCell>
        <mxCell id="es_hzVNeBXML-SNqYfub-126" value="&lt;p style=&quot;margin:0px;margin-top:4px;text-align:center;&quot;&gt;&lt;b&gt;RestaurantEvent&lt;/b&gt;&lt;/p&gt;&lt;hr size=&quot;1&quot; style=&quot;border-style:solid;&quot;&gt;&lt;p style=&quot;margin:0px;margin-left:4px;&quot;&gt;+Event Name: String&lt;/p&gt;&lt;p style=&quot;margin:0px;margin-left:4px;&quot;&gt;+Event Description: String&lt;/p&gt;&lt;hr size=&quot;1&quot; style=&quot;border-style:solid;&quot;&gt;&lt;p style=&quot;margin:0px;margin-left:4px;&quot;&gt;+ method(): Type&lt;/p&gt;" style="verticalAlign=top;align=left;overflow=fill;html=1;whiteSpace=wrap;" vertex="1" parent="es_hzVNeBXML-SNqYfub-130">
          <mxGeometry x="360" y="350" width="250" height="194" as="geometry" />
        </mxCell>
        <mxCell id="es_hzVNeBXML-SNqYfub-128" value="&lt;p style=&quot;margin:0px;margin-top:4px;text-align:center;&quot;&gt;&lt;b&gt;Restaurateur&lt;/b&gt;&lt;/p&gt;&lt;hr size=&quot;1&quot; style=&quot;border-style:solid;&quot;&gt;&lt;p style=&quot;margin:0px;margin-left:4px;&quot;&gt;+First Name: String&lt;/p&gt;&lt;p style=&quot;margin:0px;margin-left:4px;&quot;&gt;+Last Name: String&lt;/p&gt;&lt;p style=&quot;margin:0px;margin-left:4px;&quot;&gt;+Email: String&lt;/p&gt;&lt;p style=&quot;margin:0px;margin-left:4px;&quot;&gt;+Password:String&lt;/p&gt;&lt;p style=&quot;margin:0px;margin-left:4px;&quot;&gt;+Subscription:Subscription&lt;/p&gt;&lt;p style=&quot;margin:0px;margin-left:4px;&quot;&gt;&lt;br&gt;&lt;/p&gt;&lt;hr size=&quot;1&quot; style=&quot;border-style:solid;&quot;&gt;&lt;p style=&quot;margin:0px;margin-left:4px;&quot;&gt;+ method(): Type&lt;/p&gt;" style="verticalAlign=top;align=left;overflow=fill;html=1;whiteSpace=wrap;" vertex="1" parent="es_hzVNeBXML-SNqYfub-130">
          <mxGeometry x="60" y="600" width="250" height="194" as="geometry" />
        </mxCell>
        <mxCell id="es_hzVNeBXML-SNqYfub-134" value="Restaurateur_Dashboard" style="text;strokeColor=none;align=center;fillColor=none;html=1;verticalAlign=middle;whiteSpace=wrap;rounded=0;" vertex="1" parent="es_hzVNeBXML-SNqYfub-130">
          <mxGeometry x="345" y="20" width="160" height="30" as="geometry" />
        </mxCell>
        <mxCell id="es_hzVNeBXML-SNqYfub-143" value="&lt;p style=&quot;margin:0px;margin-top:4px;text-align:center;&quot;&gt;&lt;b&gt;Employe&lt;/b&gt;&lt;/p&gt;&lt;hr size=&quot;1&quot; style=&quot;border-style:solid;&quot;&gt;&lt;p style=&quot;margin:0px;margin-left:4px;&quot;&gt;+First Name: String&lt;/p&gt;&lt;p style=&quot;margin:0px;margin-left:4px;&quot;&gt;+Last Name: String&lt;/p&gt;&lt;p style=&quot;margin:0px;margin-left:4px;&quot;&gt;+Email: String&lt;/p&gt;&lt;p style=&quot;margin:0px;margin-left:4px;&quot;&gt;+Password:String&lt;/p&gt;&lt;hr size=&quot;1&quot; style=&quot;border-style:solid;&quot;&gt;&lt;p style=&quot;margin:0px;margin-left:4px;&quot;&gt;+ method(): Type&lt;/p&gt;" style="verticalAlign=top;align=left;overflow=fill;html=1;whiteSpace=wrap;" vertex="1" parent="es_hzVNeBXML-SNqYfub-130">
          <mxGeometry x="360" y="600" width="250" height="194" as="geometry" />
        </mxCell>
        <mxCell id="es_hzVNeBXML-SNqYfub-144" value="&lt;p style=&quot;margin:0px;margin-top:4px;text-align:center;&quot;&gt;&lt;b&gt;Restaurant&lt;/b&gt;&lt;/p&gt;&lt;hr size=&quot;1&quot; style=&quot;border-style:solid;&quot;&gt;&lt;p style=&quot;margin:0px;margin-left:4px;&quot;&gt;+Restaurant Name: String&lt;/p&gt;&lt;p style=&quot;margin:0px;margin-left:4px;&quot;&gt;+Restaurant Location:String&lt;/p&gt;&lt;p style=&quot;margin:0px;margin-left:4px;&quot;&gt;+Numbers of Tables:Int&lt;/p&gt;&lt;p style=&quot;margin:0px;margin-left:4px;&quot;&gt;&lt;br&gt;&lt;/p&gt;&lt;p style=&quot;margin:0px;margin-left:4px;&quot;&gt;&lt;br&gt;&lt;/p&gt;&lt;hr size=&quot;1&quot; style=&quot;border-style:solid;&quot;&gt;&lt;p style=&quot;margin:0px;margin-left:4px;&quot;&gt;+ method(): Type&lt;/p&gt;" style="verticalAlign=top;align=left;overflow=fill;html=1;whiteSpace=wrap;" vertex="1" parent="es_hzVNeBXML-SNqYfub-130">
          <mxGeometry x="620" y="110" width="250" height="194" as="geometry" />
        </mxCell>
        <mxCell id="es_hzVNeBXML-SNqYfub-133" value="Web_Site_Normal" style="text;strokeColor=none;align=center;fillColor=none;html=1;verticalAlign=middle;whiteSpace=wrap;rounded=0;" vertex="1" parent="WIyWlLk6GJQsqaUBKTNV-1">
          <mxGeometry x="-422.5" y="770" width="115" height="30" as="geometry" />
        </mxCell>
      </root>
    </mxGraphModel>
  </diagram>
</mxfile>
